<svg xmlns="http://www.w3.org/2000/svg" xmlns:xlink="http://www.w3.org/1999/xlink" width="127.5" viewBox="0 0 127.5 127.5" height="127.5" version="1.0"><defs><g id="a"><path d="M 34.65625 14.828125 C 28.445312 14.828125 22.898438 13.460938 18.015625 10.734375 C 13.140625 8.015625 9.335938 4.21875 6.609375 -0.65625 C 3.890625 -5.539062 2.53125 -11.085938 2.53125 -17.296875 C 2.53125 -23.503906 3.890625 -29.046875 6.609375 -33.921875 C 9.335938 -38.804688 13.140625 -42.609375 18.015625 -45.328125 C 22.898438 -48.054688 28.445312 -49.421875 34.65625 -49.421875 C 40.863281 -49.421875 46.40625 -48.054688 51.28125 -45.328125 C 56.164062 -42.609375 59.96875 -38.804688 62.6875 -33.921875 C 65.414062 -29.046875 66.78125 -23.503906 66.78125 -17.296875 C 66.78125 -13.410156 66.226562 -9.9375 65.125 -6.875 C 64.03125 -3.8125 62.507812 -1.425781 60.5625 0.28125 C 58.625 1.988281 56.410156 2.84375 53.921875 2.84375 C 51.554688 2.84375 49.632812 2.207031 48.15625 0.9375 C 46.675781 -0.320312 45.9375 -2.03125 45.9375 -4.1875 L 45.9375 -7.03125 C 44.707031 -4.832031 42.984375 -3.035156 40.765625 -1.640625 C 38.554688 -0.253906 36.3125 0.4375 34.03125 0.4375 C 30.726562 0.4375 27.789062 -0.3125 25.21875 -1.8125 C 22.644531 -3.3125 20.628906 -5.410156 19.171875 -8.109375 C 17.710938 -10.816406 16.984375 -13.878906 16.984375 -17.296875 C 16.984375 -20.710938 17.734375 -23.757812 19.234375 -26.4375 C 20.734375 -29.125 22.820312 -31.226562 25.5 -32.75 C 28.1875 -34.269531 31.238281 -35.03125 34.65625 -35.03125 C 38.082031 -35.03125 41.144531 -34.28125 43.84375 -32.78125 C 46.550781 -31.289062 48.648438 -29.191406 50.140625 -26.484375 C 51.640625 -23.773438 52.390625 -20.710938 52.390625 -17.296875 L 52.390625 -7.15625 C 52.390625 -4.914062 53.109375 -3.796875 54.546875 -3.796875 C 55.566406 -3.796875 56.507812 -4.375 57.375 -5.53125 C 58.238281 -6.695312 58.921875 -8.304688 59.421875 -10.359375 C 59.929688 -12.410156 60.1875 -14.722656 60.1875 -17.296875 C 60.1875 -22.234375 59.097656 -26.632812 56.921875 -30.5 C 54.753906 -34.375 51.738281 -37.394531 47.875 -39.5625 C 44.007812 -41.738281 39.601562 -42.828125 34.65625 -42.828125 C 29.71875 -42.828125 25.316406 -41.738281 21.453125 -39.5625 C 17.585938 -37.394531 14.566406 -34.375 12.390625 -30.5 C 10.210938 -26.632812 9.125 -22.234375 9.125 -17.296875 C 9.125 -12.359375 10.210938 -7.957031 12.390625 -4.09375 C 14.566406 -0.226562 17.585938 2.789062 21.453125 4.96875 C 25.316406 7.144531 29.71875 8.234375 34.65625 8.234375 C 36.34375 8.234375 38.164062 8.03125 40.125 7.625 C 42.09375 7.226562 43.773438 6.710938 45.171875 6.078125 C 46.015625 5.703125 46.734375 5.515625 47.328125 5.515625 C 48.171875 5.515625 48.832031 5.816406 49.3125 6.421875 C 49.800781 7.035156 50.046875 7.894531 50.046875 9 C 50.046875 10.132812 49.390625 11.144531 48.078125 12.03125 C 46.773438 12.925781 44.953125 13.613281 42.609375 14.09375 C 40.265625 14.582031 37.613281 14.828125 34.65625 14.828125 Z M 34.65625 -6.203125 C 36.8125 -6.203125 38.734375 -6.664062 40.421875 -7.59375 C 42.109375 -8.53125 43.414062 -9.84375 44.34375 -11.53125 C 45.28125 -13.21875 45.75 -15.140625 45.75 -17.296875 C 45.75 -19.453125 45.28125 -21.375 44.34375 -23.0625 C 43.414062 -24.75 42.109375 -26.054688 40.421875 -26.984375 C 38.734375 -27.921875 36.8125 -28.390625 34.65625 -28.390625 C 32.5 -28.390625 30.578125 -27.921875 28.890625 -26.984375 C 27.203125 -26.054688 25.890625 -24.75 24.953125 -23.0625 C 24.023438 -21.375 23.5625 -19.453125 23.5625 -17.296875 C 23.5625 -15.140625 24.023438 -13.21875 24.953125 -11.53125 C 25.890625 -9.84375 27.203125 -8.53125 28.890625 -7.59375 C 30.578125 -6.664062 32.5 -6.203125 34.65625 -6.203125 Z M 34.65625 -6.203125"/></g></defs><path fill="#00CF97" d="M 63.90625 7.65625 C 32.839844 7.65625 7.65625 32.839844 7.65625 63.90625 C 7.65625 94.972656 32.839844 120.15625 63.90625 120.15625 C 94.972656 120.15625 120.15625 94.972656 120.15625 63.90625 C 120.15625 32.839844 94.972656 7.65625 63.90625 7.65625 Z M 63.90625 7.65625"/><g fill="#FFF"><use x="29.095" y="81.572" xmlns:xlink="http://www.w3.org/1999/xlink" xlink:href="#a" xlink:type="simple" xlink:actuate="onLoad" xlink:show="embed"/></g></svg>