<?xml version="1.0" encoding="UTF-8"?>
<svg xmlns="http://www.w3.org/2000/svg" xmlns:xlink="http://www.w3.org/1999/xlink" width="16px" height="16px" viewBox="0 0 16 16" version="1.1">
<g id="surface1">
<path style=" stroke:none;fill-rule:nonzero;fill:rgb(0%,81.176471%,59.215686%);fill-opacity:1;" d="M 7.988281 0.957031 C 4.105469 0.957031 0.957031 4.105469 0.957031 7.988281 C 0.957031 11.871094 4.105469 15.019531 7.988281 15.019531 C 11.871094 15.019531 15.019531 11.871094 15.019531 7.988281 C 15.019531 4.105469 11.871094 0.957031 7.988281 0.957031 Z M 7.988281 0.957031 "/>
<path style=" stroke:none;fill-rule:nonzero;fill:rgb(100%,100%,100%);fill-opacity:1;" d="M 7.96875 12.050781 C 7.191406 12.050781 6.5 11.878906 5.890625 11.539062 C 5.28125 11.199219 4.804688 10.722656 4.464844 10.113281 C 4.125 9.503906 3.953125 8.8125 3.953125 8.035156 C 3.953125 7.257812 4.125 6.566406 4.464844 5.957031 C 4.804688 5.347656 5.28125 4.871094 5.890625 4.53125 C 6.5 4.191406 7.191406 4.019531 7.96875 4.019531 C 8.746094 4.019531 9.4375 4.191406 10.046875 4.53125 C 10.65625 4.871094 11.132812 5.347656 11.472656 5.957031 C 11.8125 6.566406 11.984375 7.257812 11.984375 8.035156 C 11.984375 8.519531 11.914062 8.953125 11.777344 9.335938 C 11.640625 9.71875 11.449219 10.019531 11.207031 10.230469 C 10.964844 10.445312 10.6875 10.550781 10.378906 10.550781 C 10.082031 10.550781 9.839844 10.472656 9.65625 10.3125 C 9.472656 10.15625 9.378906 9.941406 9.378906 9.671875 L 9.378906 9.316406 C 9.226562 9.59375 9.011719 9.816406 8.734375 9.992188 C 8.457031 10.164062 8.175781 10.25 7.890625 10.25 C 7.476562 10.25 7.109375 10.15625 6.789062 9.96875 C 6.46875 9.78125 6.214844 9.519531 6.035156 9.183594 C 5.851562 8.84375 5.761719 8.460938 5.761719 8.035156 C 5.761719 7.609375 5.855469 7.226562 6.042969 6.890625 C 6.230469 6.554688 6.488281 6.292969 6.824219 6.101562 C 7.160156 5.914062 7.542969 5.816406 7.96875 5.816406 C 8.398438 5.816406 8.78125 5.910156 9.117188 6.097656 C 9.457031 6.285156 9.71875 6.546875 9.90625 6.886719 C 10.09375 7.226562 10.1875 7.609375 10.1875 8.035156 L 10.1875 9.300781 C 10.1875 9.582031 10.277344 9.722656 10.457031 9.722656 C 10.582031 9.722656 10.699219 9.648438 10.808594 9.503906 C 10.917969 9.359375 11.003906 9.160156 11.066406 8.902344 C 11.128906 8.644531 11.160156 8.355469 11.160156 8.035156 C 11.160156 7.417969 11.023438 6.867188 10.753906 6.382812 C 10.480469 5.898438 10.105469 5.523438 9.621094 5.25 C 9.136719 4.980469 8.585938 4.84375 7.96875 4.84375 C 7.351562 4.84375 6.800781 4.980469 6.320312 5.25 C 5.835938 5.523438 5.457031 5.898438 5.1875 6.382812 C 4.914062 6.867188 4.777344 7.417969 4.777344 8.035156 C 4.777344 8.652344 4.914062 9.203125 5.1875 9.683594 C 5.457031 10.167969 5.835938 10.546875 6.320312 10.816406 C 6.800781 11.089844 7.351562 11.226562 7.96875 11.226562 C 8.179688 11.226562 8.40625 11.199219 8.652344 11.148438 C 8.898438 11.101562 9.109375 11.035156 9.285156 10.957031 C 9.390625 10.910156 9.480469 10.886719 9.554688 10.886719 C 9.660156 10.886719 9.742188 10.921875 9.800781 11 C 9.863281 11.074219 9.894531 11.183594 9.894531 11.320312 C 9.894531 11.464844 9.8125 11.589844 9.648438 11.699219 C 9.484375 11.8125 9.257812 11.898438 8.964844 11.957031 C 8.671875 12.019531 8.339844 12.050781 7.96875 12.050781 Z M 7.96875 9.421875 C 8.238281 9.421875 8.480469 9.363281 8.691406 9.246094 C 8.902344 9.128906 9.0625 8.964844 9.179688 8.753906 C 9.296875 8.542969 9.355469 8.304688 9.355469 8.035156 C 9.355469 7.765625 9.296875 7.523438 9.179688 7.3125 C 9.0625 7.101562 8.902344 6.941406 8.691406 6.824219 C 8.480469 6.707031 8.238281 6.648438 7.96875 6.648438 C 7.699219 6.648438 7.460938 6.707031 7.25 6.824219 C 7.039062 6.941406 6.875 7.101562 6.757812 7.3125 C 6.640625 7.523438 6.582031 7.765625 6.582031 8.035156 C 6.582031 8.304688 6.640625 8.542969 6.757812 8.753906 C 6.875 8.964844 7.039062 9.128906 7.25 9.246094 C 7.460938 9.363281 7.699219 9.421875 7.96875 9.421875 Z M 7.96875 9.421875 "/>
</g>
</svg>
