<?xml version="1.0" encoding="UTF-8"?>
<svg xmlns="http://www.w3.org/2000/svg" xmlns:xlink="http://www.w3.org/1999/xlink" width="24px" height="24px" viewBox="0 0 24 24" version="1.1">
<g id="surface1">
<path style=" stroke:none;fill-rule:nonzero;fill:rgb(0%,81.176471%,59.215686%);fill-opacity:1;" d="M 11.984375 1.4375 C 6.15625 1.4375 1.4375 6.15625 1.4375 11.984375 C 1.4375 17.808594 6.15625 22.53125 11.984375 22.53125 C 17.808594 22.53125 22.53125 17.808594 22.53125 11.984375 C 22.53125 6.15625 17.808594 1.4375 11.984375 1.4375 Z M 11.984375 1.4375 "/>
<path style=" stroke:none;fill-rule:nonzero;fill:rgb(100%,100%,100%);fill-opacity:1;" d="M 11.953125 18.074219 C 10.789062 18.074219 9.75 17.820312 8.832031 17.308594 C 7.917969 16.796875 7.207031 16.085938 6.695312 15.171875 C 6.183594 14.257812 5.929688 13.214844 5.929688 12.050781 C 5.929688 10.886719 6.183594 9.847656 6.695312 8.933594 C 7.207031 8.019531 7.917969 7.304688 8.832031 6.796875 C 9.75 6.285156 10.789062 6.027344 11.953125 6.027344 C 13.117188 6.027344 14.15625 6.285156 15.070312 6.796875 C 15.984375 7.304688 16.699219 8.019531 17.210938 8.933594 C 17.71875 9.847656 17.976562 10.886719 17.976562 12.050781 C 17.976562 12.78125 17.871094 13.429688 17.667969 14.003906 C 17.460938 14.578125 17.175781 15.027344 16.8125 15.347656 C 16.449219 15.667969 16.03125 15.828125 15.566406 15.828125 C 15.121094 15.828125 14.761719 15.707031 14.484375 15.46875 C 14.207031 15.234375 14.070312 14.914062 14.070312 14.507812 L 14.070312 13.976562 C 13.835938 14.390625 13.515625 14.726562 13.097656 14.988281 C 12.683594 15.246094 12.265625 15.375 11.835938 15.375 C 11.214844 15.375 10.664062 15.234375 10.183594 14.953125 C 9.699219 14.671875 9.324219 14.28125 9.050781 13.773438 C 8.777344 13.265625 8.640625 12.691406 8.640625 12.050781 C 8.640625 11.410156 8.78125 10.839844 9.0625 10.335938 C 9.34375 9.832031 9.734375 9.441406 10.238281 9.152344 C 10.742188 8.871094 11.3125 8.726562 11.953125 8.726562 C 12.59375 8.726562 13.167969 8.867188 13.675781 9.148438 C 14.183594 9.429688 14.578125 9.820312 14.855469 10.328125 C 15.136719 10.835938 15.277344 11.410156 15.277344 12.050781 L 15.277344 13.953125 C 15.277344 14.375 15.414062 14.582031 15.683594 14.582031 C 15.875 14.582031 16.050781 14.472656 16.214844 14.257812 C 16.375 14.039062 16.503906 13.738281 16.597656 13.351562 C 16.691406 12.96875 16.742188 12.535156 16.742188 12.050781 C 16.742188 11.125 16.535156 10.300781 16.128906 9.574219 C 15.722656 8.847656 15.15625 8.285156 14.433594 7.875 C 13.707031 7.46875 12.878906 7.265625 11.953125 7.265625 C 11.027344 7.265625 10.203125 7.46875 9.476562 7.875 C 8.753906 8.285156 8.1875 8.847656 7.777344 9.574219 C 7.371094 10.300781 7.167969 11.125 7.167969 12.050781 C 7.167969 12.976562 7.371094 13.804688 7.777344 14.527344 C 8.1875 15.253906 8.753906 15.816406 9.476562 16.226562 C 10.203125 16.632812 11.027344 16.839844 11.953125 16.839844 C 12.269531 16.839844 12.609375 16.800781 12.980469 16.722656 C 13.347656 16.648438 13.664062 16.554688 13.925781 16.433594 C 14.082031 16.363281 14.21875 16.328125 14.328125 16.328125 C 14.488281 16.328125 14.609375 16.386719 14.703125 16.5 C 14.792969 16.613281 14.839844 16.773438 14.839844 16.980469 C 14.839844 17.195312 14.714844 17.382812 14.46875 17.550781 C 14.226562 17.71875 13.882812 17.847656 13.445312 17.9375 C 13.003906 18.027344 12.507812 18.074219 11.953125 18.074219 Z M 11.953125 14.132812 C 12.359375 14.132812 12.71875 14.046875 13.035156 13.871094 C 13.351562 13.695312 13.59375 13.449219 13.769531 13.132812 C 13.945312 12.816406 14.035156 12.457031 14.035156 12.050781 C 14.035156 11.648438 13.945312 11.285156 13.769531 10.96875 C 13.59375 10.652344 13.351562 10.410156 13.035156 10.234375 C 12.71875 10.058594 12.359375 9.972656 11.953125 9.972656 C 11.550781 9.972656 11.1875 10.058594 10.871094 10.234375 C 10.554688 10.410156 10.308594 10.652344 10.132812 10.96875 C 9.960938 11.285156 9.875 11.648438 9.875 12.050781 C 9.875 12.457031 9.960938 12.816406 10.132812 13.132812 C 10.308594 13.449219 10.554688 13.695312 10.871094 13.871094 C 11.1875 14.046875 11.550781 14.132812 11.953125 14.132812 Z M 11.953125 14.132812 "/>
</g>
</svg>
