<svg xmlns="http://www.w3.org/2000/svg" xmlns:xlink="http://www.w3.org/1999/xlink" width="31.5" viewBox="0 0 31.5 31.5" height="31.5" version="1.0"><defs><g id="a"><path d="M 8.5625 3.65625 C 7.03125 3.65625 5.660156 3.316406 4.453125 2.640625 C 3.242188 1.972656 2.300781 1.039062 1.625 -0.15625 C 0.957031 -1.363281 0.625 -2.738281 0.625 -4.28125 C 0.625 -5.8125 0.957031 -7.175781 1.625 -8.375 C 2.300781 -9.582031 3.242188 -10.523438 4.453125 -11.203125 C 5.660156 -11.878906 7.03125 -12.21875 8.5625 -12.21875 C 10.09375 -12.21875 11.460938 -11.878906 12.671875 -11.203125 C 13.878906 -10.523438 14.816406 -9.582031 15.484375 -8.375 C 16.160156 -7.175781 16.5 -5.8125 16.5 -4.28125 C 16.5 -3.3125 16.363281 -2.445312 16.09375 -1.6875 C 15.820312 -0.9375 15.445312 -0.351562 14.96875 0.0625 C 14.488281 0.488281 13.941406 0.703125 13.328125 0.703125 C 12.742188 0.703125 12.265625 0.546875 11.890625 0.234375 C 11.523438 -0.078125 11.34375 -0.5 11.34375 -1.03125 L 11.34375 -1.734375 C 11.039062 -1.191406 10.613281 -0.75 10.0625 -0.40625 C 9.519531 -0.0625 8.96875 0.109375 8.40625 0.109375 C 7.59375 0.109375 6.867188 -0.0703125 6.234375 -0.4375 C 5.597656 -0.8125 5.097656 -1.332031 4.734375 -2 C 4.378906 -2.664062 4.203125 -3.425781 4.203125 -4.28125 C 4.203125 -5.125 4.382812 -5.875 4.75 -6.53125 C 5.125 -7.195312 5.640625 -7.71875 6.296875 -8.09375 C 6.960938 -8.46875 7.71875 -8.65625 8.5625 -8.65625 C 9.40625 -8.65625 10.160156 -8.46875 10.828125 -8.09375 C 11.503906 -7.726562 12.023438 -7.210938 12.390625 -6.546875 C 12.765625 -5.878906 12.953125 -5.125 12.953125 -4.28125 L 12.953125 -1.765625 C 12.953125 -1.210938 13.128906 -0.9375 13.484375 -0.9375 C 13.734375 -0.9375 13.960938 -1.078125 14.171875 -1.359375 C 14.390625 -1.648438 14.5625 -2.046875 14.6875 -2.546875 C 14.8125 -3.054688 14.875 -3.632812 14.875 -4.28125 C 14.875 -5.5 14.601562 -6.582031 14.0625 -7.53125 C 13.53125 -8.488281 12.785156 -9.234375 11.828125 -9.765625 C 10.867188 -10.304688 9.78125 -10.578125 8.5625 -10.578125 C 7.34375 -10.578125 6.253906 -10.304688 5.296875 -9.765625 C 4.335938 -9.234375 3.585938 -8.488281 3.046875 -7.53125 C 2.515625 -6.582031 2.25 -5.5 2.25 -4.28125 C 2.25 -3.050781 2.515625 -1.957031 3.046875 -1 C 3.585938 -0.0507812 4.335938 0.6875 5.296875 1.21875 C 6.253906 1.757812 7.34375 2.03125 8.5625 2.03125 C 8.976562 2.03125 9.425781 1.976562 9.90625 1.875 C 10.394531 1.78125 10.8125 1.65625 11.15625 1.5 C 11.363281 1.40625 11.539062 1.359375 11.6875 1.359375 C 11.90625 1.359375 12.070312 1.429688 12.1875 1.578125 C 12.3125 1.734375 12.375 1.945312 12.375 2.21875 C 12.375 2.5 12.207031 2.75 11.875 2.96875 C 11.550781 3.1875 11.097656 3.351562 10.515625 3.46875 C 9.941406 3.59375 9.289062 3.65625 8.5625 3.65625 Z M 8.5625 -1.53125 C 9.09375 -1.53125 9.566406 -1.644531 9.984375 -1.875 C 10.398438 -2.101562 10.722656 -2.425781 10.953125 -2.84375 C 11.179688 -3.257812 11.296875 -3.738281 11.296875 -4.28125 C 11.296875 -4.8125 11.179688 -5.285156 10.953125 -5.703125 C 10.722656 -6.117188 10.398438 -6.441406 9.984375 -6.671875 C 9.566406 -6.898438 9.09375 -7.015625 8.5625 -7.015625 C 8.03125 -7.015625 7.554688 -6.898438 7.140625 -6.671875 C 6.722656 -6.441406 6.398438 -6.117188 6.171875 -5.703125 C 5.941406 -5.285156 5.828125 -4.8125 5.828125 -4.28125 C 5.828125 -3.738281 5.941406 -3.257812 6.171875 -2.84375 C 6.398438 -2.425781 6.722656 -2.101562 7.140625 -1.875 C 7.554688 -1.644531 8.03125 -1.53125 8.5625 -1.53125 Z M 8.5625 -1.53125"/></g></defs><path fill="#00CF97" d="M 15.765625 1.890625 C 8.101562 1.890625 1.890625 8.101562 1.890625 15.765625 C 1.890625 23.429688 8.101562 29.640625 15.765625 29.640625 C 23.429688 29.640625 29.640625 23.429688 29.640625 15.765625 C 29.640625 8.101562 23.429688 1.890625 15.765625 1.890625 Z M 15.765625 1.890625"/><g fill="#FFF"><use x="7.188" y="20.153" xmlns:xlink="http://www.w3.org/1999/xlink" xlink:href="#a" xlink:type="simple" xlink:actuate="onLoad" xlink:show="embed"/></g></svg>