<svg xmlns="http://www.w3.org/2000/svg" xmlns:xlink="http://www.w3.org/1999/xlink" width="48" viewBox="0 0 48 48" height="48" version="1.0"><defs><g id="a"><path d="M 12.78125 5.46875 C 10.488281 5.46875 8.441406 4.960938 6.640625 3.953125 C 4.847656 2.953125 3.445312 1.554688 2.4375 -0.234375 C 1.4375 -2.035156 0.9375 -4.082031 0.9375 -6.375 C 0.9375 -8.664062 1.4375 -10.707031 2.4375 -12.5 C 3.445312 -14.300781 4.847656 -15.703125 6.640625 -16.703125 C 8.441406 -17.710938 10.488281 -18.21875 12.78125 -18.21875 C 15.070312 -18.21875 17.113281 -17.710938 18.90625 -16.703125 C 20.707031 -15.703125 22.109375 -14.300781 23.109375 -12.5 C 24.117188 -10.707031 24.625 -8.664062 24.625 -6.375 C 24.625 -4.945312 24.421875 -3.664062 24.015625 -2.53125 C 23.609375 -1.40625 23.046875 -0.53125 22.328125 0.09375 C 21.609375 0.726562 20.789062 1.046875 19.875 1.046875 C 19.007812 1.046875 18.300781 0.8125 17.75 0.34375 C 17.207031 -0.113281 16.9375 -0.742188 16.9375 -1.546875 L 16.9375 -2.59375 C 16.488281 -1.78125 15.851562 -1.117188 15.03125 -0.609375 C 14.21875 -0.0976562 13.390625 0.15625 12.546875 0.15625 C 11.328125 0.15625 10.242188 -0.117188 9.296875 -0.671875 C 8.347656 -1.222656 7.601562 -1.992188 7.0625 -2.984375 C 6.53125 -3.984375 6.265625 -5.113281 6.265625 -6.375 C 6.265625 -7.632812 6.539062 -8.757812 7.09375 -9.75 C 7.644531 -10.738281 8.414062 -11.515625 9.40625 -12.078125 C 10.394531 -12.640625 11.519531 -12.921875 12.78125 -12.921875 C 14.039062 -12.921875 15.164062 -12.644531 16.15625 -12.09375 C 17.15625 -11.539062 17.929688 -10.765625 18.484375 -9.765625 C 19.035156 -8.765625 19.3125 -7.632812 19.3125 -6.375 L 19.3125 -2.640625 C 19.3125 -1.816406 19.578125 -1.40625 20.109375 -1.40625 C 20.484375 -1.40625 20.828125 -1.617188 21.140625 -2.046875 C 21.460938 -2.472656 21.71875 -3.0625 21.90625 -3.8125 C 22.09375 -4.570312 22.1875 -5.425781 22.1875 -6.375 C 22.1875 -8.195312 21.785156 -9.820312 20.984375 -11.25 C 20.179688 -12.675781 19.066406 -13.789062 17.640625 -14.59375 C 16.222656 -15.394531 14.601562 -15.796875 12.78125 -15.796875 C 10.957031 -15.796875 9.332031 -15.394531 7.90625 -14.59375 C 6.476562 -13.789062 5.363281 -12.675781 4.5625 -11.25 C 3.757812 -9.820312 3.359375 -8.195312 3.359375 -6.375 C 3.359375 -4.550781 3.757812 -2.925781 4.5625 -1.5 C 5.363281 -0.0820312 6.476562 1.023438 7.90625 1.828125 C 9.332031 2.628906 10.957031 3.03125 12.78125 3.03125 C 13.40625 3.03125 14.078125 2.957031 14.796875 2.8125 C 15.523438 2.664062 16.144531 2.476562 16.65625 2.25 C 16.96875 2.101562 17.234375 2.03125 17.453125 2.03125 C 17.765625 2.03125 18.007812 2.140625 18.1875 2.359375 C 18.363281 2.585938 18.453125 2.90625 18.453125 3.3125 C 18.453125 3.738281 18.207031 4.113281 17.71875 4.4375 C 17.238281 4.757812 16.566406 5.007812 15.703125 5.1875 C 14.835938 5.375 13.863281 5.46875 12.78125 5.46875 Z M 12.78125 -2.296875 C 13.570312 -2.296875 14.28125 -2.460938 14.90625 -2.796875 C 15.53125 -3.140625 16.007812 -3.625 16.34375 -4.25 C 16.6875 -4.875 16.859375 -5.582031 16.859375 -6.375 C 16.859375 -7.164062 16.6875 -7.875 16.34375 -8.5 C 16.007812 -9.125 15.53125 -9.609375 14.90625 -9.953125 C 14.28125 -10.296875 13.570312 -10.46875 12.78125 -10.46875 C 11.988281 -10.46875 11.28125 -10.296875 10.65625 -9.953125 C 10.03125 -9.609375 9.546875 -9.125 9.203125 -8.5 C 8.859375 -7.875 8.6875 -7.164062 8.6875 -6.375 C 8.6875 -5.582031 8.859375 -4.875 9.203125 -4.25 C 9.546875 -3.625 10.03125 -3.140625 10.65625 -2.796875 C 11.28125 -2.460938 11.988281 -2.296875 12.78125 -2.296875 Z M 12.78125 -2.296875"/></g></defs><path fill="#00CF97" d="M 23.882812 2.824219 C 12.523438 2.824219 3.3125 12.035156 3.3125 23.394531 C 3.3125 34.757812 12.523438 43.964844 23.882812 43.964844 C 35.246094 43.964844 44.457031 34.757812 44.457031 23.394531 C 44.457031 12.035156 35.246094 2.824219 23.882812 2.824219 Z M 23.882812 2.824219"/><g fill="#FFF"><use x="11.22" y="30.083" xmlns:xlink="http://www.w3.org/1999/xlink" xlink:href="#a" xlink:type="simple" xlink:actuate="onLoad" xlink:show="embed"/></g></svg>