<svg xmlns="http://www.w3.org/2000/svg" xmlns:xlink="http://www.w3.org/1999/xlink" width="63.75" viewBox="0 0 63.75 63.75" height="63.75" version="1.0"><defs><g id="a"><path d="M 17.328125 7.40625 C 14.222656 7.40625 11.453125 6.722656 9.015625 5.359375 C 6.578125 4.003906 4.675781 2.109375 3.3125 -0.328125 C 1.945312 -2.765625 1.265625 -5.535156 1.265625 -8.640625 C 1.265625 -11.742188 1.945312 -14.515625 3.3125 -16.953125 C 4.675781 -19.398438 6.578125 -21.300781 9.015625 -22.65625 C 11.453125 -24.019531 14.222656 -24.703125 17.328125 -24.703125 C 20.429688 -24.703125 23.203125 -24.019531 25.640625 -22.65625 C 28.078125 -21.300781 29.972656 -19.398438 31.328125 -16.953125 C 32.691406 -14.515625 33.375 -11.742188 33.375 -8.640625 C 33.375 -6.703125 33.097656 -4.96875 32.546875 -3.4375 C 32.003906 -1.90625 31.25 -0.710938 30.28125 0.140625 C 29.3125 0.992188 28.203125 1.421875 26.953125 1.421875 C 25.765625 1.421875 24.800781 1.101562 24.0625 0.46875 C 23.332031 -0.15625 22.96875 -1.007812 22.96875 -2.09375 L 22.96875 -3.515625 C 22.351562 -2.421875 21.488281 -1.523438 20.375 -0.828125 C 19.269531 -0.128906 18.144531 0.21875 17 0.21875 C 15.351562 0.21875 13.882812 -0.15625 12.59375 -0.90625 C 11.3125 -1.65625 10.304688 -2.703125 9.578125 -4.046875 C 8.847656 -5.398438 8.484375 -6.929688 8.484375 -8.640625 C 8.484375 -10.359375 8.859375 -11.882812 9.609375 -13.21875 C 10.359375 -14.5625 11.40625 -15.613281 12.75 -16.375 C 14.09375 -17.132812 15.617188 -17.515625 17.328125 -17.515625 C 19.035156 -17.515625 20.5625 -17.140625 21.90625 -16.390625 C 23.257812 -15.640625 24.3125 -14.585938 25.0625 -13.234375 C 25.8125 -11.890625 26.1875 -10.359375 26.1875 -8.640625 L 26.1875 -3.578125 C 26.1875 -2.460938 26.546875 -1.90625 27.265625 -1.90625 C 27.773438 -1.90625 28.242188 -2.191406 28.671875 -2.765625 C 29.109375 -3.347656 29.453125 -4.148438 29.703125 -5.171875 C 29.960938 -6.203125 30.09375 -7.359375 30.09375 -8.640625 C 30.09375 -11.117188 29.546875 -13.320312 28.453125 -15.25 C 27.367188 -17.175781 25.859375 -18.679688 23.921875 -19.765625 C 21.992188 -20.859375 19.796875 -21.40625 17.328125 -21.40625 C 14.859375 -21.40625 12.65625 -20.859375 10.71875 -19.765625 C 8.789062 -18.679688 7.28125 -17.175781 6.1875 -15.25 C 5.101562 -13.320312 4.5625 -11.117188 4.5625 -8.640625 C 4.5625 -6.171875 5.101562 -3.96875 6.1875 -2.03125 C 7.28125 -0.101562 8.789062 1.398438 10.71875 2.484375 C 12.65625 3.578125 14.859375 4.125 17.328125 4.125 C 18.171875 4.125 19.082031 4.019531 20.0625 3.8125 C 21.039062 3.613281 21.878906 3.359375 22.578125 3.046875 C 23.003906 2.847656 23.363281 2.75 23.65625 2.75 C 24.082031 2.75 24.414062 2.898438 24.65625 3.203125 C 24.894531 3.515625 25.015625 3.945312 25.015625 4.5 C 25.015625 5.070312 24.6875 5.578125 24.03125 6.015625 C 23.382812 6.460938 22.472656 6.804688 21.296875 7.046875 C 20.128906 7.285156 18.804688 7.40625 17.328125 7.40625 Z M 17.328125 -3.109375 C 18.398438 -3.109375 19.359375 -3.335938 20.203125 -3.796875 C 21.046875 -4.265625 21.695312 -4.921875 22.15625 -5.765625 C 22.625 -6.609375 22.859375 -7.566406 22.859375 -8.640625 C 22.859375 -9.722656 22.625 -10.6875 22.15625 -11.53125 C 21.695312 -12.375 21.046875 -13.023438 20.203125 -13.484375 C 19.359375 -13.953125 18.398438 -14.1875 17.328125 -14.1875 C 16.242188 -14.1875 15.28125 -13.953125 14.4375 -13.484375 C 13.59375 -13.023438 12.9375 -12.375 12.46875 -11.53125 C 12.007812 -10.6875 11.78125 -9.722656 11.78125 -8.640625 C 11.78125 -7.566406 12.007812 -6.609375 12.46875 -5.765625 C 12.9375 -4.921875 13.59375 -4.265625 14.4375 -3.796875 C 15.28125 -3.335938 16.242188 -3.109375 17.328125 -3.109375 Z M 17.328125 -3.109375"/></g></defs><path fill="#00CF97" d="M 31.953125 3.828125 C 16.421875 3.828125 3.828125 16.421875 3.828125 31.953125 C 3.828125 47.484375 16.421875 60.078125 31.953125 60.078125 C 47.484375 60.078125 60.078125 47.484375 60.078125 31.953125 C 60.078125 16.421875 47.484375 3.828125 31.953125 3.828125 Z M 31.953125 3.828125"/><g fill="#FFF"><use x="14.547" y="40.786" xmlns:xlink="http://www.w3.org/1999/xlink" xlink:href="#a" xlink:type="simple" xlink:actuate="onLoad" xlink:show="embed"/></g></svg>